<svg width="255" height="42" viewBox="0 0 255 42" fill="none" xmlns="http://www.w3.org/2000/svg">
<path d="M84.6323 13.7424C85.3273 16.7188 85.9354 19.2985 86.7502 22.7556C88.2124 17.6951 89.5339 13.49 90.623 9.22552C91.3734 6.28718 93.2863 5.43045 95.8552 6.15635C98.7902 6.98571 97.6107 9.31407 97.0916 11.1211C95.1625 17.8364 93.0932 24.5112 91.1306 31.217C90.4241 33.631 89.5031 35.4553 86.424 35.3137C83.4423 35.1765 83.0395 33.0833 82.5053 30.9809C81.6479 27.6064 80.856 24.2152 79.8801 20.1854C77.364 23.9125 77.5202 27.7727 76.5387 31.2623C75.9116 33.4917 75.2655 35.2908 72.381 35.3042C69.5374 35.3174 68.6967 33.5184 68.0438 31.3532C65.9777 24.5017 63.894 17.6551 61.8945 10.7841C61.4177 9.14551 60.1977 7.03691 62.9685 6.25781C65.4571 5.55805 67.6398 6.03209 68.4651 8.97511C69.6228 13.1035 70.7853 17.2306 72.3691 22.8642C73.5154 17.95 74.2593 14.4814 75.1475 11.0502C75.753 8.71095 75.8812 5.95055 79.4769 5.98346C82.9179 6.01494 83.4493 8.34858 83.8742 10.9417C84.0079 11.7578 84.3167 12.5451 84.6323 13.7424Z" fill="black"/>
<path d="M156.053 6.76612C160.341 5.3334 164.367 5.79358 168.322 6.01648C177.41 6.52859 180.295 11.7314 176.036 19.9699C178.74 23.1342 180.045 26.914 177.856 30.8477C175.518 35.0462 171.256 35.3884 166.929 35.3361C152.798 35.1653 155.103 36.7962 155.077 23.4192C155.067 17.9681 154.241 12.4546 156.053 6.76612ZM162.556 28.7638C163.416 29.8033 164.622 29.579 165.742 29.6046C167.907 29.654 170.062 29.5795 171.417 27.4913C172.014 26.5706 171.889 25.5952 171.205 24.761C169.491 22.6693 167.105 22.9334 164.848 23.1881C161.719 23.541 162.323 26.0357 162.556 28.7638ZM169.615 12.6848C168.031 11.9824 166.338 12.0073 164.728 12.3169C161.846 12.8708 161.772 15.0752 163.193 16.7434C164.587 18.3794 166.925 17.7596 168.783 17.0137C170.511 16.3198 171.549 15.0988 169.615 12.6848Z" fill="black"/>
<path d="M31.597 8.19558C31.5474 17.3223 31.3866 25.9779 31.4937 34.6302C31.545 38.7719 30.0565 39.8561 26.0335 38.8827C17.1977 36.7449 17.1773 36.8881 17.1923 27.8735C17.2045 20.5506 17.1388 13.2274 17.1792 5.90477C17.2135 -0.295436 17.7257 -0.718976 23.8544 0.903446C27.4878 1.86528 32.4338 1.58522 31.597 8.19558Z" fill="black"/>
<path d="M189.692 40.619C187.774 41.2338 186.192 41.7808 184.57 41.9583C183.175 42.111 181.916 41.5045 181.513 39.9659C181.127 38.4896 181.56 37.2147 183.116 36.8153C186.751 35.882 186.194 33.4794 185.281 30.9625C183.375 25.702 181.417 20.4603 179.361 14.888C188.301 11.7844 186.586 20.2328 189.743 23.1826C191.218 22.5066 191.345 20.8444 191.649 19.5887C192.643 15.4822 194.579 13.0824 199.261 13.8457C201.664 14.2376 202.94 12.9014 203.069 10.4062C203.181 8.2647 204.647 7.69344 206.541 7.77989C208.275 7.859 209.387 8.64082 209.511 10.4601C209.618 12.0215 210.049 13.2026 211.549 14.1432C213.451 15.3351 213.482 16.8472 211.777 18.6276C208.551 21.9979 208.597 27.0441 211.796 30.2188C212.848 31.2637 213.544 32.2035 212.992 33.6629C212.403 35.2173 211.015 35.2563 209.668 35.2712C205.794 35.3139 203.213 33.7965 203.051 29.5653C202.961 27.2407 202.944 24.9101 202.992 22.5842C203.039 20.3503 202.408 18.6522 199.573 17.9956C195.269 24.8988 195.351 33.8591 189.692 40.619Z" fill="black"/>
<path d="M13.7268 10.8206C13.9511 18.2801 14.201 25.2618 14.3795 32.2452C14.4322 34.3057 14.1883 36.5938 11.7439 37.0159C8.20932 37.6263 4.86362 39.9332 1.1257 38.6347C-0.0481554 38.2269 0.0729374 36.664 0.0697334 35.5066C0.0430614 25.8533 0.080781 16.1996 0.000366968 6.54676C-0.02484 3.52176 1.24713 1.94733 4.25565 1.48553C7.02142 1.06097 9.68241 -0.0430166 12.7633 0.146566C14.4514 3.4309 13.3548 6.97192 13.7268 10.8206Z" fill="black"/>
<path d="M40.0603 38.6002C35.7648 40.1621 33.9367 38.8675 34.4085 34.6411C35.4069 25.6953 35.0472 16.713 34.7567 7.76591C34.6194 3.53647 35.9407 1.55575 40.0216 1.13939C41.5008 0.988462 42.9784 0.66638 44.4129 0.265463C47.1523 -0.500146 48.5756 0.35369 48.5793 3.30453C48.592 13.27 48.7177 23.2365 48.6139 33.2007C48.5553 38.8228 43.2807 36.893 40.0603 38.6002Z" fill="black"/>
<path d="M232.303 32.9984C226.272 37.0013 220.689 36.8964 216.565 32.9654C212.895 29.4665 212.118 23.3004 214.86 18.7417C217.502 14.3486 221.605 12.9663 226.407 13.7896C230.781 14.5396 233.34 17.4654 234.359 21.7153C235.179 25.1339 234.238 27.2431 230.245 27.1048C227.33 27.0038 224.409 27.085 220.766 27.085C222.228 30.3787 223.877 31.012 226.213 30.0073C227.27 29.5526 228.201 28.7785 229.277 28.4001C230.705 27.8984 232.417 27.5884 233.498 28.821C234.769 30.2706 233.44 31.549 232.303 32.9984Z" fill="black"/>
<path d="M106.677 20.7892C104.895 23.8954 105.861 26.9571 105.585 29.8985C105.364 32.2608 106.214 35.2731 102.187 35.1875C98.5791 35.1109 99.0527 32.4188 99.0271 30.1558C98.9556 23.8304 98.9231 17.5037 98.9657 11.1782C98.981 8.91003 98.5959 6.20577 102.115 6.05606C105.566 5.90921 105.618 8.32204 105.629 10.7902C105.633 11.7518 105.813 12.7126 105.899 13.5381C107.81 14.5705 109.412 13.5079 111.036 13.5952C114.134 13.7618 116.705 14.9161 117.737 17.9001C119.462 22.8864 118.731 28.0947 118.363 33.2078C118.228 35.0775 116.426 35.2389 114.858 35.1708C113.013 35.0906 112.195 33.9443 112.14 32.2413C112.044 29.2472 112.199 26.2369 111.95 23.2582C111.683 20.0565 110.113 18.653 106.677 20.7892Z" fill="black"/>
<path d="M121.583 33.4866C118.864 27.6361 120.318 24.3955 125.833 22.4594C127.953 21.7154 130.547 22.3721 132.576 20.0369C130.679 17.82 128.924 18.6971 127.133 19.9956C125.255 21.3578 122.938 22.3285 121.588 19.9608C120.442 17.9488 122.348 16.158 124.085 15.1508C127.756 13.0227 131.742 12.8758 135.557 14.6078C139.079 16.2063 139.626 19.535 139.584 23.0304C139.538 26.8251 139.573 30.6207 139.573 35.3052C133.509 33.4548 127.511 38.4331 121.583 33.4866ZM132.557 27.0025C129.873 25.834 128.01 26.5394 126.785 29.5557C129.723 31.1441 131.793 31.1079 132.557 27.0025Z" fill="black"/>
<path d="M240.273 26.9784C236.891 25.0076 234.102 22.6033 235.829 18.1963C237.54 13.8312 241.451 13.4104 245.42 13.6466C249.56 13.893 252.734 15.4956 253.365 19.9648C249.358 24.6095 246.138 16.1417 242.206 19.58C243.361 22.397 245.982 21.5261 247.864 22.0712C251.629 23.1619 254.333 25.1453 254.166 29.2744C253.996 33.4778 250.876 35.152 247.172 35.8696C243.916 36.5004 240.857 35.8462 238.133 33.9867C236.605 32.9438 235.126 31.5835 235.308 29.5617C235.537 27.0325 237.911 27.5037 240.101 27.2734C243.574 31.5144 243.937 31.6032 247.321 28.9713C245.198 27.2692 242.652 27.3907 240.273 26.9784Z" fill="black"/>
<path d="M151.135 18.9857C149.247 23.2591 148.023 27.1067 152.192 30.7072C154.424 32.6355 153.589 34.6223 150.6 35.2198C146.513 36.0365 143.465 33.6463 143.017 29.4268C142.58 25.3057 144.297 20.7581 140.387 17.2954C139.615 16.6115 144.001 8.19025 145.124 7.8723C145.439 7.78327 145.783 7.77522 146.114 7.77384C147.496 7.76807 149.732 8.43565 149.217 9.38589C147.025 13.4284 156.922 14.3037 151.135 18.9857Z" fill="black"/>
</svg>
