<svg version="1.1" id="Layer_1" xmlns="http://www.w3.org/2000/svg" xmlns:xlink="http://www.w3.org/1999/xlink" x="0px" y="0px"
	 width="100%" viewBox="0 0 800 192" enable-background="new 0 0 800 192" xml:space="preserve">
<path fill="#000000" opacity="1.000000" stroke="none" 
	d="
M372.322876,93.793625 
	C373.017914,96.770035 373.625946,99.349655 374.440765,102.806755 
	C375.902985,97.746254 377.224518,93.541168 378.313599,89.276718 
	C379.063995,86.338371 380.976868,85.481644 383.545746,86.207542 
	C386.480835,87.036903 385.301270,89.365265 384.782166,91.172302 
	C382.853119,97.887550 380.783813,104.562378 378.821167,111.268181 
	C378.114685,113.682152 377.193726,115.506493 374.114624,115.364868 
	C371.132843,115.227715 370.730072,113.134499 370.195923,111.032104 
	C369.338531,107.657570 368.546600,104.266418 367.570648,100.236595 
	C365.054565,103.963722 365.210785,107.823921 364.229248,111.313484 
	C363.602203,113.542900 362.956085,115.342003 360.071625,115.355392 
	C357.228027,115.368591 356.387299,113.569618 355.734406,111.404388 
	C353.668335,104.552849 351.584595,97.706284 349.585083,90.835281 
	C349.108246,89.196701 347.888275,87.088104 350.659058,86.309006 
	C353.147675,85.609245 355.330414,86.083282 356.155701,89.026306 
	C357.313385,93.154732 358.475891,97.281815 360.059723,102.915413 
	C361.205994,98.001221 361.949860,94.532623 362.838074,91.101402 
	C363.443634,88.762146 363.571838,86.001747 367.167480,86.034653 
	C370.608459,86.066132 371.139862,88.399773 371.564758,90.992905 
	C371.698486,91.808960 372.007263,92.596329 372.322876,93.793625 
z"/>
<path fill="#000000" opacity="1.000000" stroke="none" 
	d="
M443.743622,86.817223 
	C448.031525,85.384506 452.057678,85.844681 456.013031,86.067581 
	C465.100586,86.579697 467.986053,91.782501 463.726807,100.020973 
	C466.430664,103.185287 467.735931,106.965141 465.546204,110.898827 
	C463.209076,115.097267 458.946228,115.439529 454.619232,115.387222 
	C440.488129,115.216408 442.793823,116.847313 442.767822,103.470314 
	C442.757233,98.019203 441.931732,92.505676 443.743622,86.817223 
M450.246185,108.814949 
	C451.106873,109.854446 452.312775,109.630104 453.432831,109.655685 
	C455.598022,109.705147 457.752411,109.630623 459.107300,107.542358 
	C459.704651,106.621696 459.579315,105.646309 458.895813,104.812134 
	C457.181824,102.720360 454.795715,102.984489 452.538177,103.239174 
	C449.409760,103.592079 450.013458,106.086754 450.246185,108.814949 
M457.305878,92.735870 
	C455.721344,92.033463 454.028595,92.058449 452.418488,92.367966 
	C449.536926,92.921921 449.462799,95.126343 450.883820,96.794510 
	C452.277405,98.430466 454.615906,97.810654 456.473480,97.064842 
	C458.201965,96.370880 459.239594,95.149948 457.305878,92.735870 
z"/>
<path fill="#000000" opacity="1.000000" stroke="none" 
	d="
M319.287506,88.246750 
	C319.237946,97.373512 319.077087,106.029083 319.184235,114.681335 
	C319.235504,118.823112 317.747040,119.907234 313.724060,118.933884 
	C304.888214,116.796066 304.867828,116.939293 304.882843,107.924706 
	C304.895050,100.601799 304.829285,93.278603 304.869751,85.955940 
	C304.903992,79.755730 305.416229,79.332191 311.544952,80.954613 
	C315.178345,81.916451 320.124359,81.636391 319.287506,88.246750 
z"/>
<path fill="#000000" opacity="1.000000" stroke="none" 
	d="
M477.382690,120.670151 
	C475.464355,121.284943 473.882446,121.831970 472.260071,122.009506 
	C470.865326,122.162148 469.606018,121.555634 469.203430,120.017097 
	C468.817139,118.540771 469.250854,117.265869 470.806366,116.866508 
	C474.441772,115.933159 473.884003,113.530586 472.971893,111.013687 
	C471.065491,105.753174 469.107269,100.511444 467.051239,94.939163 
	C475.991302,91.835602 474.276825,100.283981 477.433411,103.233788 
	C478.908661,102.557755 479.035889,100.895607 479.339813,99.639816 
	C480.333679,95.533325 482.269104,93.133514 486.950989,93.896820 
	C489.354767,94.288727 490.629974,92.952530 490.759674,90.457405 
	C490.871002,88.315865 492.337341,87.744598 494.231873,87.831047 
	C495.965668,87.910164 497.077148,88.691978 497.201416,90.511299 
	C497.308075,92.072693 497.738983,93.253731 499.239655,94.194374 
	C501.141174,95.386307 501.172150,96.898392 499.467773,98.678795 
	C496.241425,102.049057 496.287354,107.095215 499.485901,110.269989 
	C500.538574,111.314827 501.234833,112.254700 500.681946,113.714058 
	C500.093079,115.268456 498.705231,115.307503 497.358002,115.322357 
	C493.484802,115.365059 490.903717,113.847672 490.740936,109.616493 
	C490.651489,107.291840 490.634125,104.961235 490.682709,102.635368 
	C490.729401,100.401413 490.098785,98.703377 487.263672,98.046776 
	C482.959869,104.949921 483.040924,113.910217 477.382690,120.670151 
z"/>
<path fill="#000000" opacity="1.000000" stroke="none" 
	d="
M301.417358,90.871841 
	C301.641724,98.331329 301.891571,105.312965 302.070068,112.296417 
	C302.122772,114.356911 301.878876,116.644981 299.434509,117.067123 
	C295.899902,117.677536 292.554199,119.984390 288.816284,118.685860 
	C287.642426,118.278061 287.763519,116.715164 287.760315,115.557816 
	C287.733643,105.904488 287.771362,96.250755 287.690948,86.597961 
	C287.665741,83.572960 288.937714,81.998528 291.946228,81.536728 
	C294.712006,81.112175 297.372986,80.008186 300.453918,80.197769 
	C302.142029,83.482101 301.045349,87.023125 301.417358,90.871841 
z"/>
<path fill="#000000" opacity="1.000000" stroke="none" 
	d="
M327.750732,118.651352 
	C323.455231,120.213249 321.627167,118.918648 322.098938,114.692245 
	C323.097412,105.746498 322.737671,96.764236 322.447174,87.817101 
	C322.309845,83.587662 323.631226,81.606941 327.712036,81.190575 
	C329.191254,81.039650 330.668884,80.717567 332.103394,80.316650 
	C334.842804,79.551041 336.266083,80.404877 336.269806,83.355713 
	C336.282471,93.321228 336.408203,103.287689 336.304382,113.251846 
	C336.245819,118.873940 330.971161,116.944153 327.750732,118.651352 
z"/>
<path fill="#000000" opacity="1.000000" stroke="none" 
	d="
M519.993164,113.049606 
	C513.962585,117.052475 508.379303,116.947548 504.255859,113.016586 
	C500.585632,109.517670 499.809082,103.351624 502.550659,98.792854 
	C505.192627,94.399780 509.295532,93.017441 514.097778,93.840790 
	C518.471863,94.590752 521.030518,97.516586 522.049805,101.766449 
	C522.869629,105.185104 521.928894,107.294281 517.935608,107.155937 
	C515.020691,107.054955 512.099548,107.136177 508.456909,107.136177 
	C509.918335,110.429878 511.567474,111.063194 513.903381,110.058495 
	C514.960693,109.603745 515.891602,108.829697 516.968079,108.451279 
	C518.395142,107.949585 520.107422,107.639610 521.188171,108.872177 
	C522.459229,110.321754 521.130859,111.600174 519.993164,113.049606 
z"/>
<path fill="#000000" opacity="1.000000" stroke="none" 
	d="
M394.367249,100.840424 
	C392.585114,103.946640 393.551239,107.008286 393.275574,109.949684 
	C393.054169,112.312004 393.904114,115.324341 389.877472,115.238754 
	C386.269623,115.162071 386.743256,112.469971 386.717682,110.206993 
	C386.646210,103.881561 386.613647,97.554932 386.656281,91.229378 
	C386.671570,88.961235 386.286499,86.256973 389.805176,86.107269 
	C393.256653,85.960419 393.309052,88.373245 393.319550,90.841423 
	C393.323639,91.803001 393.503998,92.763824 393.589935,93.589272 
	C395.500610,94.621758 397.102539,93.559082 398.726166,93.646393 
	C401.824463,93.813019 404.395691,94.967346 405.427704,97.951279 
	C407.152344,102.937637 406.421143,108.145882 406.053162,113.259048 
	C405.918610,115.128677 404.116394,115.290138 402.548920,115.222023 
	C400.704071,115.141853 399.885315,113.995468 399.830658,112.292534 
	C399.734589,109.298447 399.889343,106.288063 399.640869,103.309372 
	C399.373840,100.107758 397.803711,98.704208 394.367249,100.840424 
z"/>
<path fill="#000000" opacity="1.000000" stroke="none" 
	d="
M409.273254,113.537720 
	C406.554993,107.687225 408.008301,104.446587 413.523926,102.510483 
	C415.643341,101.766518 418.237915,102.423210 420.266327,100.088036 
	C418.369690,97.871109 416.614929,98.748161 414.824005,100.046707 
	C412.945251,101.408951 410.628235,102.379601 409.279022,100.011909 
	C408.132538,97.999931 410.038483,96.209076 411.775970,95.201912 
	C415.447113,93.073799 419.432404,92.926865 423.247894,94.658859 
	C426.769379,96.257393 427.316498,99.586098 427.274200,103.081528 
	C427.228271,106.876190 427.263824,110.671822 427.263824,115.356285 
	C421.199799,113.505943 415.201141,118.484222 409.273254,113.537720 
M420.247375,107.053596 
	C417.563354,105.885109 415.700653,106.590553 414.475983,109.606789 
	C417.413971,111.195221 419.483307,111.159004 420.247375,107.053596 
z"/>
<path fill="#000000" opacity="1.000000" stroke="none" 
	d="
M527.964050,107.029572 
	C524.581970,105.058777 521.792664,102.654465 523.519958,98.247459 
	C525.230713,93.882355 529.141479,93.461586 533.110840,93.697830 
	C537.250244,93.944191 540.425110,95.546783 541.055908,100.015999 
	C537.049072,104.660698 533.828918,96.192909 529.897095,99.631165 
	C531.051331,102.448189 533.672668,101.577255 535.554565,102.122414 
	C539.319397,103.213058 542.023376,105.196533 541.856689,109.325638 
	C541.687012,113.529007 538.566650,115.203209 534.862793,115.920815 
	C531.607117,116.551598 528.548096,115.897423 525.823608,114.037910 
	C524.295471,112.994949 522.816345,111.634697 522.998962,109.612846 
	C523.227539,107.083694 525.602051,107.554916 527.791992,107.324547 
	C531.264832,111.565582 531.627380,111.654366 535.012024,109.022484 
	C532.888855,107.320366 530.342896,107.441902 527.964050,107.029572 
z"/>
<path fill="#000000" opacity="1.000000" stroke="none" 
	d="
M438.825806,99.036888 
	C436.937592,103.310287 435.714081,107.157867 439.882141,110.758362 
	C442.114380,112.686653 441.280060,114.673485 438.290222,115.270988 
	C434.203857,116.087639 431.155426,113.697426 430.708038,109.477928 
	C430.271057,105.356834 431.987152,100.809242 428.077698,97.346519 
	C427.305573,96.662605 431.691681,88.241394 432.814972,87.923447 
	C433.129456,87.834419 433.474030,87.826370 433.804962,87.824989 
	C435.187103,87.819221 437.422607,88.486794 436.907318,89.437035 
	C434.715271,93.479576 444.612213,94.354858 438.825806,99.036888 
z"/>
</svg>