<?xml version="1.0" ?><svg viewBox="0 0 24 24" xmlns="http://www.w3.org/2000/svg"><title/><g id="achievment"><path d="M12,0A8,8,0,0,0,7,14.22V23a1,1,0,0,0,1.6.8L12,21.25c3.55,2.66,3.71,3,4.45,2.64s.55-.41.55-9.67A8,8,0,0,0,12,0ZM6,8a6,6,0,1,1,4.21,5.72A6,6,0,0,1,6,8Zm9,13c-3.56-2.67-2.45-2.66-6,0V15.42a8.23,8.23,0,0,0,6,0Z"/><path d="M10,9.08l-.3,1.83a.5.5,0,0,0,.73.52L12,10.58l1.57.85a.5.5,0,0,0,.73-.52L14,9.08l1.3-1.3A.5.5,0,0,0,15,6.93l-1.78-.27L12.45,5a.5.5,0,0,0-.9,0l-.79,1.64L9,6.93a.5.5,0,0,0-.28.85Z"/></g></svg>